<!-- Created by Nguyễn Công Thư. Decorative, original vector artwork. -->
<svg xmlns="http://www.w3.org/2000/svg" viewBox="0 0 600 540" fill="none">
<defs><linearGradient id="sky" x2="0" y2="1"><stop stop-color="#d4e2d6"/><stop offset="1" stop-color="#f4e3bf"/></linearGradient><linearGradient id="sea" x2="0" y2="1"><stop stop-color="#40686b"/><stop offset="1" stop-color="#a5bbb2"/></linearGradient></defs>
<g transform="rotate(-10 215 262)"><path fill="#242a27" d="M54 85h305v385H54z"/><path fill="url(#sky)" d="M70 107h273v327H70z"/><circle cx="258" cy="194" r="48" fill="#f1b24e"/><path fill="#969c70" d="m70 305 88-81 102 120 83-47v137H70z"/><path fill="#3f625b" d="m70 351 114-58 73 62 86-40v119H70z"/><path fill="#223f39" d="m70 393 130-43 143 58v26H70z"/><g fill="#f4eee0"><path d="M63 91h12v6H63zM91 91h12v6H91zM119 91h12v6h-12zM147 91h12v6h-12zM175 91h12v6h-12zM203 91h12v6h-12zM231 91h12v6h-12zM259 91h12v6h-12zM287 91h12v6h-12zM315 91h12v6h-12z"/></g></g>
<g transform="rotate(9 396 308)"><path fill="#fffaf0" d="M251 158h254v307H251z"/><path fill="#b9d5d3" d="M269 176h218v218H269z"/><path fill="#eae7d2" d="M269 266h218v22H269z"/><path fill="url(#sea)" d="M269 288h218v106H269z"/><path stroke="#cbdad0" stroke-width="3" d="M269 320h218m-192 17h141m-167 22h174m-144 19h188"/><path fill="#ede4c5" d="m443 241 32 53h-32z"/><path stroke="#344d46" stroke-width="2" d="M443 240v67"/><path fill="#344d46" d="m426 297 51-1-11 11h-31z"/><path stroke="#76776c" stroke-width="2" d="M273 424h98m-98 9h58"/></g>
</svg>
